<svg id="Layer_1" data-name="Layer 1" xmlns="http://www.w3.org/2000/svg" viewBox="0 0 336.21 54.22"><defs><style>.cls-1{isolation:isolate;}.cls-2{fill:#015392;}</style></defs><title>n logo</title><g class="cls-1"><path class="cls-2" d="M355,634.75l-1.9-7.16h1l1.09,4.69q.18.74.3,1.46.27-1.15.32-1.32l1.36-4.83h1.14l1,3.62a19.14,19.14,0,0,1,.56,2.53q.14-.68.36-1.56l1.12-4.6h1l-2,7.16h-.91l-1.51-5.45c-.13-.46-.2-.74-.22-.84-.07.33-.15.61-.21.84L356,634.75Z" transform="translate(-312.1 -582.63)"/><path class="cls-2" d="M366.44,633.08l.91.11a2.22,2.22,0,0,1-.8,1.24,2.7,2.7,0,0,1-3.29-.26,2.74,2.74,0,0,1-.67-2,2.87,2.87,0,0,1,.67-2,2.28,2.28,0,0,1,1.75-.72,2.22,2.22,0,0,1,1.7.71,2.81,2.81,0,0,1,.66,2c0,.05,0,.13,0,.23H363.5a2,2,0,0,0,.48,1.31,1.44,1.44,0,0,0,1.08.45,1.35,1.35,0,0,0,.83-.25A1.68,1.68,0,0,0,366.44,633.08Zm-2.89-1.42h2.9a1.76,1.76,0,0,0-.33-1,1.35,1.35,0,0,0-1.09-.51,1.39,1.39,0,0,0-1,.41A1.61,1.61,0,0,0,363.55,631.66Z" transform="translate(-312.1 -582.63)"/><path class="cls-2" d="M369.26,634.75h-.82v-7.16h.88v2.55a1.74,1.74,0,0,1,1.42-.7,2.17,2.17,0,0,1,.91.19,1.85,1.85,0,0,1,.7.54,2.62,2.62,0,0,1,.43.84,3.48,3.48,0,0,1,.16,1.05,3,3,0,0,1-.66,2.06,2.06,2.06,0,0,1-1.58.73,1.65,1.65,0,0,1-1.44-.77Zm0-2.63a2.69,2.69,0,0,0,.25,1.35,1.26,1.26,0,0,0,2.12.18,2.28,2.28,0,0,0,.42-1.49,2.31,2.31,0,0,0-.4-1.5,1.23,1.23,0,0,0-1-.48,1.27,1.27,0,0,0-1,.5A2.2,2.2,0,0,0,369.25,632.12Z" transform="translate(-312.1 -582.63)"/><path class="cls-2" d="M382.46,634.75v-7.16h2.47a6,6,0,0,1,1.27.1,2.43,2.43,0,0,1,1,.51,2.91,2.91,0,0,1,.85,1.22,4.81,4.81,0,0,1,.28,1.7,5,5,0,0,1-.19,1.45,3.49,3.49,0,0,1-.49,1,2.6,2.6,0,0,1-.65.65,2.66,2.66,0,0,1-.85.36,4.89,4.89,0,0,1-1.15.12Zm.95-.84h1.53a3.71,3.71,0,0,0,1.11-.13,1.59,1.59,0,0,0,.64-.37,2.26,2.26,0,0,0,.52-.91,4.42,4.42,0,0,0,.19-1.38,3.33,3.33,0,0,0-.37-1.73,1.86,1.86,0,0,0-.9-.81,3.7,3.7,0,0,0-1.23-.15h-1.5Z" transform="translate(-312.1 -582.63)"/><path class="cls-2" d="M393.12,633.08l.91.11a2.22,2.22,0,0,1-.8,1.24,2.7,2.7,0,0,1-3.29-.26,2.74,2.74,0,0,1-.67-2,2.87,2.87,0,0,1,.67-2,2.28,2.28,0,0,1,1.75-.72,2.22,2.22,0,0,1,1.7.71,2.81,2.81,0,0,1,.66,2c0,.05,0,.13,0,.23h-3.87a2,2,0,0,0,.48,1.31,1.44,1.44,0,0,0,1.08.45,1.35,1.35,0,0,0,.83-.25A1.68,1.68,0,0,0,393.12,633.08Zm-2.89-1.42h2.9a1.76,1.76,0,0,0-.33-1,1.35,1.35,0,0,0-1.09-.51,1.39,1.39,0,0,0-1,.41A1.61,1.61,0,0,0,390.23,631.66Z" transform="translate(-312.1 -582.63)"/><path class="cls-2" d="M396.57,634.75l-2-5.19h.93l1.11,3.11q.18.5.33,1,.12-.41.33-1l1.15-3.16h.9l-2,5.19Z" transform="translate(-312.1 -582.63)"/><path class="cls-2" d="M403.68,633.08l.91.11a2.21,2.21,0,0,1-.8,1.24,2.69,2.69,0,0,1-3.29-.26,2.74,2.74,0,0,1-.67-2,2.87,2.87,0,0,1,.67-2,2.28,2.28,0,0,1,1.75-.72,2.22,2.22,0,0,1,1.7.71,2.81,2.81,0,0,1,.66,2c0,.05,0,.13,0,.23h-3.87a2,2,0,0,0,.48,1.31,1.44,1.44,0,0,0,1.08.45,1.35,1.35,0,0,0,.83-.25A1.67,1.67,0,0,0,403.68,633.08Zm-2.89-1.42h2.9a1.75,1.75,0,0,0-.33-1,1.34,1.34,0,0,0-1.09-.51,1.39,1.39,0,0,0-1,.41A1.6,1.6,0,0,0,400.79,631.66Z" transform="translate(-312.1 -582.63)"/><path class="cls-2" d="M405.67,634.75v-7.16h.88v7.16Z" transform="translate(-312.1 -582.63)"/><path class="cls-2" d="M407.59,632.16a2.67,2.67,0,0,1,.8-2.13,2.42,2.42,0,0,1,1.63-.58,2.32,2.32,0,0,1,1.75.7,2.66,2.66,0,0,1,.68,1.94,3.43,3.43,0,0,1-.3,1.57,2.13,2.13,0,0,1-.87.89,2.54,2.54,0,0,1-1.25.32,2.33,2.33,0,0,1-1.76-.7A2.79,2.79,0,0,1,407.59,632.16Zm.9,0a2.21,2.21,0,0,0,.43,1.49,1.45,1.45,0,0,0,2.18,0,2.26,2.26,0,0,0,.43-1.52,2.15,2.15,0,0,0-.44-1.46,1.45,1.45,0,0,0-2.18,0A2.2,2.2,0,0,0,408.49,632.16Z" transform="translate(-312.1 -582.63)"/><path class="cls-2" d="M413.47,636.74v-7.17h.8v.67a2,2,0,0,1,.64-.59,1.77,1.77,0,0,1,.86-.2,2,2,0,0,1,1.17.34,2.09,2.09,0,0,1,.77,1,3.51,3.51,0,0,1,.26,1.36,3.46,3.46,0,0,1-.29,1.43,2.17,2.17,0,0,1-2,1.32,1.65,1.65,0,0,1-.79-.19,1.81,1.81,0,0,1-.57-.47v2.52Zm.8-4.55a2.26,2.26,0,0,0,.41,1.48,1.24,1.24,0,0,0,1,.48,1.27,1.27,0,0,0,1-.5,2.35,2.35,0,0,0,.42-1.54,2.29,2.29,0,0,0-.41-1.48,1.23,1.23,0,0,0-1-.49,1.27,1.27,0,0,0-1,.52A2.35,2.35,0,0,0,414.27,632.19Z" transform="translate(-312.1 -582.63)"/><path class="cls-2" d="M419,634.75v-5.19h.79v.73a1.85,1.85,0,0,1,.65-.61,1.82,1.82,0,0,1,.92-.23,1.71,1.71,0,0,1,.95.24,1.28,1.28,0,0,1,.52.67,1.86,1.86,0,0,1,1.6-.91,1.58,1.58,0,0,1,1.19.43,1.82,1.82,0,0,1,.42,1.32v3.56h-.87v-3.27a2.41,2.41,0,0,0-.08-.76.74.74,0,0,0-.31-.37,1,1,0,0,0-.53-.14,1.23,1.23,0,0,0-.91.36,1.61,1.61,0,0,0-.36,1.17v3h-.88v-3.37a1.48,1.48,0,0,0-.21-.88.81.81,0,0,0-.7-.29,1.28,1.28,0,0,0-.69.2,1.11,1.11,0,0,0-.46.57,3.24,3.24,0,0,0-.14,1.08v2.69Z" transform="translate(-312.1 -582.63)"/><path class="cls-2" d="M430.92,633.08l.91.11a2.21,2.21,0,0,1-.8,1.24,2.69,2.69,0,0,1-3.29-.26,2.74,2.74,0,0,1-.67-2,2.87,2.87,0,0,1,.67-2,2.28,2.28,0,0,1,1.75-.72,2.22,2.22,0,0,1,1.7.71,2.81,2.81,0,0,1,.66,2c0,.05,0,.13,0,.23H428a2,2,0,0,0,.48,1.31,1.44,1.44,0,0,0,1.08.45,1.35,1.35,0,0,0,.83-.25A1.67,1.67,0,0,0,430.92,633.08ZM428,631.66h2.9a1.75,1.75,0,0,0-.33-1,1.34,1.34,0,0,0-1.09-.51,1.39,1.39,0,0,0-1,.41A1.6,1.6,0,0,0,428,631.66Z" transform="translate(-312.1 -582.63)"/><path class="cls-2" d="M432.93,634.75v-5.19h.79v.74a1.87,1.87,0,0,1,1.65-.85,2.19,2.19,0,0,1,.86.17,1.36,1.36,0,0,1,.59.44,1.68,1.68,0,0,1,.27.65,5,5,0,0,1,0,.85v3.19h-.88V631.6a2.36,2.36,0,0,0-.1-.8.85.85,0,0,0-.36-.43,1.16,1.16,0,0,0-.61-.16,1.42,1.42,0,0,0-1,.36,1.76,1.76,0,0,0-.41,1.35v2.83Z" transform="translate(-312.1 -582.63)"/><path class="cls-2" d="M440.41,634l.13.78a3.28,3.28,0,0,1-.66.08,1.51,1.51,0,0,1-.74-.15.85.85,0,0,1-.37-.4,3.16,3.16,0,0,1-.11-1v-3H438v-.68h.64v-1.28l.87-.53v1.81h.88v.68h-.88v3a1.51,1.51,0,0,0,0,.48.36.36,0,0,0,.15.17.59.59,0,0,0,.3.06Z" transform="translate(-312.1 -582.63)"/><path class="cls-2" d="M453.69,633.91a3,3,0,0,1-.95.73,2.58,2.58,0,0,1-1.11.24,2.19,2.19,0,0,1-1.74-.74,2,2,0,0,1-.52-1.35,1.87,1.87,0,0,1,.43-1.2,3.57,3.57,0,0,1,1.28-.94,4.28,4.28,0,0,1-.64-.9,1.59,1.59,0,0,1-.16-.67,1.49,1.49,0,0,1,.51-1.12,1.79,1.79,0,0,1,1.27-.48,1.66,1.66,0,0,1,1.2.45,1.45,1.45,0,0,1,.47,1.08q0,1-1.35,1.74l1.28,1.64a4,4,0,0,0,.34-1l.91.2a5,5,0,0,1-.63,1.54,5.11,5.11,0,0,0,1.12,1.1l-.59.7A5.11,5.11,0,0,1,453.69,633.91Zm-.55-.69-1.61-2a3.08,3.08,0,0,0-1,.79,1.27,1.27,0,0,0-.25.72,1.54,1.54,0,0,0,.35.9,1.15,1.15,0,0,0,1,.47,1.63,1.63,0,0,0,.82-.25A2,2,0,0,0,453.14,633.21Zm-1.24-3a2.35,2.35,0,0,0,.74-.59,1,1,0,0,0,.17-.56.81.81,0,0,0-.23-.6.79.79,0,0,0-.58-.23.82.82,0,0,0-.59.23.75.75,0,0,0-.24.56.81.81,0,0,0,.09.35,1.81,1.81,0,0,0,.26.39Z" transform="translate(-312.1 -582.63)"/><path class="cls-2" d="M469.83,632.24l.95.24a3.19,3.19,0,0,1-1.07,1.78,3,3,0,0,1-1.89.61,3.4,3.4,0,0,1-1.88-.47,2.94,2.94,0,0,1-1.1-1.36,4.86,4.86,0,0,1-.38-1.92,4.22,4.22,0,0,1,.43-2,2.91,2.91,0,0,1,1.22-1.26,3.54,3.54,0,0,1,1.74-.43,2.94,2.94,0,0,1,1.81.55,2.83,2.83,0,0,1,1,1.54l-.93.22a2.21,2.21,0,0,0-.72-1.14,1.93,1.93,0,0,0-1.19-.36,2.31,2.31,0,0,0-1.38.4,2.09,2.09,0,0,0-.78,1.06,4.28,4.28,0,0,0-.22,1.37,4.37,4.37,0,0,0,.27,1.59,2,2,0,0,0,.83,1,2.32,2.32,0,0,0,1.22.34,2,2,0,0,0,1.35-.46A2.34,2.34,0,0,0,469.83,632.24Z" transform="translate(-312.1 -582.63)"/><path class="cls-2" d="M471.5,632.16a2.67,2.67,0,0,1,.8-2.13,2.42,2.42,0,0,1,1.63-.58,2.32,2.32,0,0,1,1.75.7,2.66,2.66,0,0,1,.68,1.94,3.43,3.43,0,0,1-.3,1.57,2.13,2.13,0,0,1-.87.89,2.54,2.54,0,0,1-1.25.32,2.33,2.33,0,0,1-1.76-.7A2.79,2.79,0,0,1,471.5,632.16Zm.9,0a2.21,2.21,0,0,0,.43,1.49,1.45,1.45,0,0,0,2.18,0,2.26,2.26,0,0,0,.43-1.52,2.15,2.15,0,0,0-.44-1.46,1.45,1.45,0,0,0-2.18,0A2.2,2.2,0,0,0,472.41,632.16Z" transform="translate(-312.1 -582.63)"/><path class="cls-2" d="M477.39,634.75v-5.19h.79v.74a1.87,1.87,0,0,1,1.65-.85,2.19,2.19,0,0,1,.86.17,1.36,1.36,0,0,1,.59.44,1.68,1.68,0,0,1,.27.65,5,5,0,0,1,0,.85v3.19h-.88V631.6a2.36,2.36,0,0,0-.1-.8.85.85,0,0,0-.36-.43,1.16,1.16,0,0,0-.61-.16,1.42,1.42,0,0,0-1,.36,1.76,1.76,0,0,0-.41,1.35v2.83Z" transform="translate(-312.1 -582.63)"/><path class="cls-2" d="M482.6,633.2l.87-.14a1.21,1.21,0,0,0,.41.8,1.42,1.42,0,0,0,.93.28,1.37,1.37,0,0,0,.9-.25.74.74,0,0,0,.29-.58.53.53,0,0,0-.26-.47,3.79,3.79,0,0,0-.9-.3,8.3,8.3,0,0,1-1.34-.42,1.28,1.28,0,0,1-.76-1.19,1.33,1.33,0,0,1,.16-.64,1.43,1.43,0,0,1,.43-.49,1.8,1.8,0,0,1,.56-.26,2.64,2.64,0,0,1,.76-.11,3,3,0,0,1,1.07.18,1.45,1.45,0,0,1,.68.48,1.85,1.85,0,0,1,.3.8l-.86.12a.94.94,0,0,0-.34-.62,1.25,1.25,0,0,0-.79-.22,1.44,1.44,0,0,0-.86.2.59.59,0,0,0-.26.47.49.49,0,0,0,.11.31.78.78,0,0,0,.34.23l.78.22a10.68,10.68,0,0,1,1.3.41,1.32,1.32,0,0,1,.58.46,1.28,1.28,0,0,1,.21.75,1.48,1.48,0,0,1-.26.83,1.66,1.66,0,0,1-.74.6,2.68,2.68,0,0,1-1.09.21,2.43,2.43,0,0,1-1.54-.42A2,2,0,0,1,482.6,633.2Z" transform="translate(-312.1 -582.63)"/><path class="cls-2" d="M491.35,634.75V634a1.9,1.9,0,0,1-1.65.88,2.09,2.09,0,0,1-.86-.18,1.41,1.41,0,0,1-.59-.44,1.67,1.67,0,0,1-.27-.65,4.53,4.53,0,0,1-.05-.82v-3.21h.88v2.88a5.19,5.19,0,0,0,.05.93.91.91,0,0,0,.35.54,1.08,1.08,0,0,0,.66.2,1.45,1.45,0,0,0,.74-.2,1.13,1.13,0,0,0,.49-.55,2.77,2.77,0,0,0,.14-1v-2.78h.88v5.19Z" transform="translate(-312.1 -582.63)"/><path class="cls-2" d="M493.49,634.75v-7.16h.88v7.16Z" transform="translate(-312.1 -582.63)"/><path class="cls-2" d="M497.65,634l.13.78a3.28,3.28,0,0,1-.66.08,1.51,1.51,0,0,1-.74-.15.85.85,0,0,1-.37-.4,3.16,3.16,0,0,1-.11-1v-3h-.64v-.68h.64v-1.28l.87-.53v1.81h.88v.68h-.88v3a1.51,1.51,0,0,0,0,.48.36.36,0,0,0,.15.17.59.59,0,0,0,.3.06Z" transform="translate(-312.1 -582.63)"/><path class="cls-2" d="M498.52,628.6v-1h.88v1Zm0,6.15v-5.19h.88v5.19Z" transform="translate(-312.1 -582.63)"/><path class="cls-2" d="M500.74,634.75v-5.19h.79v.74a1.87,1.87,0,0,1,1.65-.85,2.19,2.19,0,0,1,.86.17,1.36,1.36,0,0,1,.59.44,1.68,1.68,0,0,1,.27.65,5,5,0,0,1,0,.85v3.19h-.88V631.6a2.36,2.36,0,0,0-.1-.8.85.85,0,0,0-.36-.43,1.16,1.16,0,0,0-.61-.16,1.42,1.42,0,0,0-1,.36,1.76,1.76,0,0,0-.41,1.35v2.83Z" transform="translate(-312.1 -582.63)"/><path class="cls-2" d="M506.14,635.18l.85.13a.82.82,0,0,0,.3.58,1.46,1.46,0,0,0,.89.24,1.56,1.56,0,0,0,.94-.24,1.2,1.2,0,0,0,.45-.68,5.53,5.53,0,0,0,.06-1.13,1.81,1.81,0,0,1-1.44.68,2,2,0,0,1-1.66-.77,3,3,0,0,1-.59-1.85,3.45,3.45,0,0,1,.27-1.37,2.15,2.15,0,0,1,.78-1,2.1,2.1,0,0,1,1.2-.34,1.86,1.86,0,0,1,1.51.74v-.62h.81V634a4.26,4.26,0,0,1-.25,1.72,1.81,1.81,0,0,1-.78.8,2.71,2.71,0,0,1-1.32.29,2.49,2.49,0,0,1-1.5-.42A1.41,1.41,0,0,1,506.14,635.18Zm.73-3.12a2.25,2.25,0,0,0,.41,1.49,1.34,1.34,0,0,0,2,0,2.18,2.18,0,0,0,.41-1.46,2.13,2.13,0,0,0-.42-1.44,1.31,1.31,0,0,0-1-.48,1.27,1.27,0,0,0-1,.48A2.12,2.12,0,0,0,506.86,632.06Z" transform="translate(-312.1 -582.63)"/></g><path class="cls-2" d="M315.87,617.6V583.24H331.1a20.28,20.28,0,0,1,7,.93,7.64,7.64,0,0,1,3.82,3.27,9.75,9.75,0,0,1,1.43,5.18,8.64,8.64,0,0,1-2.37,6.16q-2.37,2.51-7.31,3.19a11.79,11.79,0,0,1,2.74,1.71,23.63,23.63,0,0,1,3.77,4.57l6,9.35h-5.72l-4.55-7.15q-2-3.09-3.28-4.73a10.32,10.32,0,0,0-2.31-2.3,6.82,6.82,0,0,0-2.07-.91,13.66,13.66,0,0,0-2.53-.16h-5.27V617.6Zm4.55-19.2h9.77a14.66,14.66,0,0,0,4.88-.64,5.19,5.19,0,0,0,2.67-2.06,5.58,5.58,0,0,0,.91-3.08,5.12,5.12,0,0,0-1.77-4q-1.77-1.57-5.59-1.57H320.42Z" transform="translate(-312.1 -582.63)"/><path class="cls-2" d="M346.69,617.6l13.2-34.36h4.9l14.06,34.36h-5.18l-4-10.41H355.29l-3.77,10.41Zm9.91-14.11h11.65L364.67,594q-1.64-4.34-2.44-7.12a43.8,43.8,0,0,1-1.85,6.56Z" transform="translate(-312.1 -582.63)"/><path class="cls-2" d="M382.57,617.6V583.24h24.84v4.05h-20.3v10.52h19v4h-19v11.7h21.09v4.05Z" transform="translate(-312.1 -582.63)"/><path class="cls-2" d="M427.83,617.6V583.24h13a31.29,31.29,0,0,1,5.23.33,10.35,10.35,0,0,1,4.24,1.61,8.42,8.42,0,0,1,2.75,3.32,11.18,11.18,0,0,1-1.75,12.11q-2.79,3-10.08,3h-8.81v14Zm4.55-18h8.88q4.41,0,6.26-1.64a5.85,5.85,0,0,0,1.85-4.62,6.21,6.21,0,0,0-1.09-3.69,5.09,5.09,0,0,0-2.87-2,19.43,19.43,0,0,0-4.24-.3h-8.79Z" transform="translate(-312.1 -582.63)"/><path class="cls-2" d="M458.46,600.87q0-8.55,4.59-13.39a15.62,15.62,0,0,1,11.86-4.84,16.45,16.45,0,0,1,8.58,2.27,14.85,14.85,0,0,1,5.82,6.34,20.59,20.59,0,0,1,2,9.22,20.25,20.25,0,0,1-2.11,9.35,14.4,14.4,0,0,1-6,6.25,17.08,17.08,0,0,1-8.34,2.12,16.25,16.25,0,0,1-8.67-2.34,15.08,15.08,0,0,1-5.79-6.4A19.39,19.39,0,0,1,458.46,600.87Zm4.69.07q0,6.21,3.34,9.79a11.65,11.65,0,0,0,16.83,0q3.32-3.61,3.32-10.24a17.6,17.6,0,0,0-1.42-7.32,10.89,10.89,0,0,0-4.15-4.85,11.25,11.25,0,0,0-6.13-1.72,11.63,11.63,0,0,0-8.31,3.32Q463.15,593.18,463.15,600.94Z" transform="translate(-312.1 -582.63)"/><path class="cls-2" d="M497.18,617.6V583.24h13a31.29,31.29,0,0,1,5.23.33,10.35,10.35,0,0,1,4.24,1.61,8.42,8.42,0,0,1,2.75,3.32,11.18,11.18,0,0,1-1.75,12.11q-2.79,3-10.08,3h-8.81v14Zm4.55-18h8.88q4.41,0,6.26-1.64a5.85,5.85,0,0,0,1.85-4.62,6.21,6.21,0,0,0-1.09-3.69,5.09,5.09,0,0,0-2.87-2,19.43,19.43,0,0,0-4.24-.3h-8.79Z" transform="translate(-312.1 -582.63)"/><path class="cls-2" d="M529.29,617.6V583.24h24.84v4.05h-20.3v10.52h19v4h-19v11.7h21.09v4.05Z" transform="translate(-312.1 -582.63)"/><path class="cls-2" d="M561,617.6V583.24h4.55v30.3h16.92v4.05Z" transform="translate(-312.1 -582.63)"/><path class="cls-2" d="M587.72,617.6V583.24h4.55v17l17.06-17h6.16l-14.41,13.92,15,20.44h-6l-12.23-17.39-5.62,5.48V617.6Z" transform="translate(-312.1 -582.63)"/><path class="cls-2" d="M616.15,617.6l13.2-34.36h4.9l14.06,34.36h-5.18l-4-10.41H624.75L621,617.6Zm9.91-14.11h11.65L634.13,594q-1.64-4.34-2.44-7.12a43.8,43.8,0,0,1-1.85,6.56Z" transform="translate(-312.1 -582.63)"/><path class="cls-2" d="M312.1,624.44v-3.52H645.59v3.52Z" transform="translate(-312.1 -582.63)"/></svg>